:SAMPLES-PER-SECOND 30
:FULLY-SPECIFIED
:DEGREES
594
root  59.4262 37.864 -14.0782 -80.5913 -86.706 79.0267
RightUpLeg  12.509 -7.24103 -3.20501
RightLeg  14.0583 8.14102 0.867468
RightFoot  -21.8778 -0.48909 -3.69718
RightToes  -8.14909e-010 0 -3.6325e-017
Spine  6.1921 2.68477 7.11736
Spine1  4.57408 4.32412 -5.77967
HEad  -16.7289 5.08373 -7.86598
LeftShoulder1  -0.10226 3.8474 -23.583
LeftArm  13.9831 1.39821 -24.769
LeftForeArm  53.7688 -20.3313 -4.3329
LeftHand  -0.029425 5.41263 1.39518
RightShoulder  -0.238255 -4.22704 25.4917
RightArm  29.6209 15.6535 55.2416
RightForeArm  9.82852 26.4594 5.15503
RightHand  -0.0793149 4.75208 -1.20149
LeftUpLeg  -21.5006 0.196162 -2.00094
LeftLeg  4.72254 2.53974 -0.0172663
LeftFoot  -1.06295 0.412754 -4.73547
LeftToes  1.648e-009 -9.21574e-011 2.55256e-011
595
root  58.0148 37.641 -13.8788 -92.2717 -86.0773 90.4855
RightUpLeg  13.9933 -4.93971 -4.18921
RightLeg  16.2796 7.27736 1.24954
RightFoot  -22.9769 -0.326622 -1.68413
RightToes  -8.14909e-010 0 -3.6325e-017
Spine  6.16755 3.90116 6.41308
Spine1  4.93308 5.65758 -5.93297
HEad  -16.635 2.75078 -7.06478
LeftShoulder1  -0.131974 3.95023 -23.1463
LeftArm  22.0573 4.83792 -19.206
LeftForeArm  47.0615 -22.9418 -3.12954
LeftHand  -0.0368042 5.58594 1.13095
RightShoulder  -0.366408 -4.59656 26.4671
RightArm  30.0213 13.3398 52.8699
RightForeArm  8.70221 24.3718 4.78225
RightHand  -0.102968 4.66507 -1.47991
LeftUpLeg  -22.2902 0.239383 -3.34026
LeftLeg  10.0335 3.18363 0.569813
LeftFoot  3.7211 0.106496 -0.927604
LeftToes  1.648e-009 -9.21574e-011 2.55256e-011
596
root  56.5484 37.4092 -13.66 -95.5884 -85.1971 93.0292
RightUpLeg  15.1557 -1.65973 -5.00425
RightLeg  20.4787 5.39888 1.88636
RightFoot  -23.3574 0.0740574 2.12839
RightToes  -8.14909e-010 0 -3.6325e-017
Spine  6.54929 4.62153 4.78034
Spine1  5.06855 6.18986 -5.14614
HEad  -15.8031 1.50503 -6.68444
LeftShoulder1  -0.133646 3.96963 -22.2976
LeftArm  24.367 8.53228 -14.4089
LeftForeArm  44.6974 -24.9175 -2.96446
LeftHand  -0.0296338 5.66898 2.26181
RightShoulder  -0.447706 -4.80734 27.4577
RightArm  29.8878 11.4348 50.9342
RightForeArm  9.21904 20.5635 4.94105
RightHand  -0.0617183 4.33385 -1.01597
LeftUpLeg  -22.0602 0.860097 -4.81227
LeftLeg  14.704 1.95043 0.704471
LeftFoot  6.78728 -0.0605564 0.177826
LeftToes  1.648e-009 -9.21574e-011 2.55256e-011
597
root  55.1692 37.2314 -13.466 -89.761 -83.87 86.4937
RightUpLeg  14.1981 -0.729395 -6.77766
RightLeg  28.3288 5.22211 2.87441
RightFoot  -21.8503 0.588862 8.30699
RightToes  -8.14909e-010 0 -3.6325e-017
Spine  7.09145 4.84106 1.9365
Spine1  5.19636 5.89853 -3.69841
HEad  -15.4157 1.12189 -6.51467
LeftShoulder1  -0.24679 4.3662 -22.2028
LeftArm  24.4706 10.8786 -10.8808
LeftForeArm  44.972 -25.3066 -3.09263
LeftHand  -0.0283983 5.55914 1.63506
RightShoulder  -0.472684 -4.86916 27.7171
RightArm  23.3777 9.33654 49.9426
RightForeArm  15.5121 15.1532 6.53703
RightHand  -0.0354411 3.89238 -0.721083
LeftUpLeg  -22.0034 0.946637 -6.88686
LeftLeg  20.4189 1.21505 0.859378
LeftFoot  3.3264 -0.258435 1.85016
LeftToes  1.648e-009 -9.21574e-011 2.55256e-011
598
root  53.9025 37.2662 -13.2045 -88.111 -83.3777 84.4984
RightUpLeg  10.5865 -1.80814 -8.94104
RightLeg  38.4463 6.02235 4.83567
RightFoot  -14.6107 0.269949 13.5109
RightToes  -8.14909e-010 0 -3.6325e-017
Spine  7.73077 4.94161 1.75852
Spine1  5.28409 6.02316 -4.45995
HEad  -15.453 0.385365 -6.26673
LeftShoulder1  -0.158689 4.069 -21.5661
LeftArm  23.4755 12.2477 -9.66349
LeftForeArm  44.6314 -23.843 -2.90503
LeftHand  -0.033631 6.03681 -0.333836
RightShoulder  -0.604679 -5.22069 28.4746
RightArm  15.8107 6.96055 48.4995
RightForeArm  20.6972 10.2606 7.21377
RightHand  0.00623257 4.42842 -0.179757
LeftUpLeg  -20.7459 0.869861 -7.90616
LeftLeg  22.9115 1.26548 0.92559
LeftFoot  0.666941 -0.335813 3.14422
LeftToes  1.648e-009 -9.21574e-011 2.55256e-011
